<svg height="512" viewBox="0 0 512 512" width="512" xmlns="http://www.w3.org/2000/svg"><g><g><g><path d="m16 400h480a0 0 0 0 1 0 0v32a32 32 0 0 1 -32 32h-416a32 32 0 0 1 -32-32v-32a0 0 0 0 1 0 0z" fill="#d8d7da"/><path d="m296 432h-80l-8-32h96z" fill="#2d2d30"/><path d="m400 128h24a32 32 0 0 1 32 32v240h-400v-240a32 32 0 0 1 32-32h24" fill="#3e3d42"/><path d="m400 152h32v224h-352v-224h32" fill="#57a4ff"/></g><path d="m209.35 248.88-5.13-6.98" fill="none"/><path d="m400 48v205.91l-104-141.91-91.78 129.9-36.22-49.37-56 69.7v-214.23z" fill="#83d8f4"/><path d="m400 48h-288v214.23l56-69.7 36.22 49.37 91.78-129.9 104 141.91zm-150.21 256h-25.75m175.96-39.81v-10.28m-190.65-5.03-5.13-6.98m5.13 6.98-5.13-6.98m5.13 6.98-5.13-6.98" fill="none"/><circle cx="176" cy="128" fill="#ffda44" r="32"/><path d="m400 253.91v50.09h-150.21l-40.44-55.12-5.13-6.98 91.78-129.9z" fill="#4e901e"/><path d="m209.35 248.88-5.13-6.98" fill="none"/><path d="m209.35 248.88 40.44 55.12h-25.75-112.04v-29.69-12.08l56-69.7 36.22 49.37z" fill="#91cc04"/><path d="m209.35 248.88-5.13-6.98" fill="none"/></g><g><path d="m176 168a40 40 0 1 0 -40-40 40.045 40.045 0 0 0 40 40zm0-64a24 24 0 1 1 -24 24 24.028 24.028 0 0 1 24-24z"/><path d="m496 392h-32v-232a40.04 40.04 0 0 0 -40-40h-16v-72a8 8 0 0 0 -8-8h-288a8 8 0 0 0 -8 8v72h-16a40.04 40.04 0 0 0 -40 40v232h-32a8 8 0 0 0 -8 8v32a40.04 40.04 0 0 0 40 40h416a40.04 40.04 0 0 0 40-40v-32a8 8 0 0 0 -8-8zm-376-336h272v177.69l-89.47-126.31a8 8 0 0 0 -13.06 0l-85.73 121.03-29.25-40.56a8 8 0 0 0 -12.98 0l-41.51 57.57zm272 205.38v34.62h-139.52l-38.85-53.87 82.37-116.29zm-272 11.39 48-66.56 64.75 89.79h-112.75zm-8 39.23h288a8 8 0 0 0 8-8v-144h16v208h-336v-208h16v144a8 8 0 0 0 8 8zm-48-152a24.032 24.032 0 0 1 24-24h16v8h-24a8 8 0 0 0 -8 8v224a8 8 0 0 0 8 8h352a8 8 0 0 0 8-8v-224a8 8 0 0 0 -8-8h-24v-8h16a24.032 24.032 0 0 1 24 24v232h-384zm229.75 248-4 16h-67.5l-4-16zm194.25 24a24.032 24.032 0 0 1 -24 24h-416a24.032 24.032 0 0 1 -24-24v-24h177.75l6.49 25.94a8 8 0 0 0 7.76 6.06h80a8 8 0 0 0 7.76-6.06l6.49-25.94h177.75z"/><path d="m88 416h-48a8 8 0 0 0 0 16h48a8 8 0 0 0 0-16z"/><path d="m120 416h-8a8 8 0 0 0 0 16h8a8 8 0 0 0 0-16z"/></g></g></svg>