<svg id="Capa_1" enable-background="new 0 0 512 512" height="512" viewBox="0 0 512 512" width="512" xmlns="http://www.w3.org/2000/svg"><g><g><path d="m504.5 164.5v252c0 11.046-8.954 20-20 20h-452c-13.807 0-25-11.193-25-25v-247z" fill="#f9f8f9"/><path d="m504.5 184.5v-20l-276.011-12.798-220.989 12.798v20 227c0 13.807 11.193 25 25 25h10c-8.28 0-15-6.72-15-15v-231c0-3.314 2.686-6 6-6z" fill="#efedef"/><path d="m504.5 97.5v67.5h-497v-67.5c0-13.807 11.193-25 25-25h447c13.807 0 25 11.193 25 25z" fill="#b3dafe"/><g fill="#8ac9fe"><path d="m250.258 148.5c-8.255 0-14.947-6.716-14.947-15s6.692-15 14.947-15h186.315c8.255 0 14.947 6.716 14.947 15s-6.692 15-14.947 15z"/><ellipse cx="172.369" cy="132.5" rx="14.947" ry="15"/><path d="m182.861 143.184 12.874-12.869-13.139 1.179z"/><path d="m162.092 121.608 12.562-12.516-2.693 10.408z"/><ellipse cx="111.534" cy="132.5" rx="14.947" ry="15"/><path d="m122.053 143.157 12.382-12.499-12.674.836z"/><path d="m101.257 121.608 12.371-12.459-2.502 10.351z"/><ellipse cx="52.447" cy="132.5" rx="14.947" ry="15"/><path d="m63.269 142.846 12.721-13.186-13.139 1.381z"/><path d="m42.17 121.608 11.622-12.038-1.753 9.93z"/></g><ellipse cx="185.349" cy="119.5" fill="#88f2a9" rx="14.947" ry="15"/><path d="m240.416 122.211 13.037-12.859-3.025 14.276z" fill="#8ac9fe"/><path d="m447.33 143.915 13.149-13.179-10.185 3.381z" fill="#8ac9fe"/><ellipse cx="124.446" cy="119.5" fill="#fddf80" rx="14.947" ry="15"/><ellipse cx="64.995" cy="119.5" fill="#ee6161" rx="14.947" ry="15"/><path d="m263.237 135.5c-8.255 0-14.947-6.716-14.947-15s6.692-15 14.947-15h186.315c8.255 0 14.947 6.716 14.947 15s-6.692 15-14.947 15z" fill="#f9f8f9"/><path d="m382.702 318.149c0 6.635 2.417 14.324 8.333 16.344 1.514.517 3.136.797 4.824.797 8.284 0 14.994-6.749 14.994-15.082v-63.892l14.14 14.222c5.855 5.889 15.347 5.889 21.202 0 5.859-5.881 5.859-15.445 0-21.326l-39.735-39.967c-1.154-1.175-2.506-2.141-3.977-2.866-2.283-1.126-5.151-.473-7.697-.328-3.671.176-7.245 1.771-9.829 4.396l-37.915 38.695c-5.855 5.889-6.876 13.883-1.021 19.773 3.022 3.04 6.515 6.133 10.474 6.035 3.712-.092 7.397-1.563 10.23-4.412l14.14-14.222 1.497.897z" fill="#a2f5c3"/><path d="m398.511 209.248c1.153-1.173 2.498-2.14 3.969-2.862-2.286-1.133-4.85-1.683-7.395-1.537-3.671.179-7.242 1.769-9.826 4.4l-39.736 39.962c-5.851 5.891-5.851 15.439 0 21.329 3.022 3.041 7.01 4.512 10.973 4.406-.437-.305-.848-.643-1.226-1.027-5.851-5.891-5.851-15.439 0-21.329z" fill="#80e29e"/><path d="m387.42 249.717-6.555 6.598.001 63.892c0 6.639 4.254 12.265 10.171 14.279l-.219-83.312c-.005-1.77-2.149-2.713-3.398-1.457z" fill="#80e29e"/><path d="m272.83 347.085-221.447-.17c-5.523 0-10-4.477-10-10l1.149-128.638c0-5.523 4.477-10 10-10l3.328-1.346h218.001c5.523 0 10 4.477 10 10v125.999l-1.031 4.155c0 5.523-4.477 10-10 10z" fill="#d8ecfe"/><path d="m283.86 332.93v5c0 5.523-4.477 10-10 10h-223c-5.523 0-10-4.477-10-10v-131c0-5.523 4.477-10 10-10h5v130c0 3.314 2.686 6 6 6z" fill="#b3dafe"/><path d="m456.139 395.707c8.284 0 15-6.716 15-15v-29.161c0-7.296-5.887-13.21-13.149-13.21-.388 0-.772.017-1.151.05-1.627.142-3.118 1.059-4.477 1.763-4.256 2.204-7.021 6.401-7.021 11.636l-.128 10.96c0 1.277-1.169 1.792-2.293 2.225-.335.129-.698.2-1.078.2h-91.962c-1.657 0-3-1.343-3-3v-10.623c0-7.296-5.887-13.21-13.149-13.21-.388 0-.772.017-1.152.05-6.723.586-10.898 7.41-10.898 14.316l-.17 27.234c0 8.284 6.716 15 15 15l7.213.771h112.415z" fill="#a2f5c3"/><path d="m347.58 395.71h-12c-8.28 0-15-6.72-15-15v-29.16c0-6.91 5.28-12.57 12-13.15v42.31c0 8.28 6.72 15 15 15z" fill="#80e29e"/><path d="m456.84 338.4v23.77c0 1.66-1.34 3-3 3h-12c1.66 0 3-1.34 3-3v-10.62c0-6.91 5.28-12.57 12-13.15z" fill="#80e29e"/><path d="m210.861 272.431c0-26.786-21.714-48.5-48.5-48.5-11.82 0-22.652 4.228-31.067 11.254-10.655 8.897-15.571 21.782-15.571 36.748 0 26.786 20.704 48.003 47.489 48.003 15.887 0 29.137-6.644 37.984-18.448 6.069-8.099 9.665-18.158 9.665-29.057z" fill="#ee6161"/><path d="m202.13 300.2c-8.77 12.53-23.31 20.73-39.77 20.73-26.79 0-48.5-21.71-48.5-48.5 0-16.46 8.2-31.01 20.74-39.77-5.51 7.87-8.74 17.44-8.74 27.77 0 26.79 21.71 48.5 48.5 48.5 10.33 0 19.91-3.23 27.77-8.73z" fill="#e94444"/><path d="m182.094 268.566-22.443-12.957-3.672-1.629c-2.975-1.718-6.694.429-6.694 3.865l-.199 29.181c0 3.435 3.719 5.583 6.694 3.865l3.868-1.635 22.447-12.96c2.974-1.718 2.974-6.012-.001-7.73z" fill="#f9f8f9"/><path d="m159.65 255.61v33.65l-4.3 2.48c-2.98 1.72-6.7-.43-6.7-3.87v-30.88c0-3.44 3.72-5.58 6.7-3.87z" fill="#efedef"/><path d="m159.83 255.71c-.12.4-.18.83-.18 1.28v-1.38z" fill="#efedef"/><path d="m159.84 289.15-.19.11v-1.39c0 .45.06.88.19 1.28z" fill="#efedef"/><path d="m159.83 255.71c-.12.4-.18.83-.18 1.28v-1.38z" fill="#efedef"/><path d="m159.84 289.15-.19.11v-1.39c0 .45.06.88.19 1.28z" fill="#efedef"/></g><g><path d="m479.5 66.5h-271.181c-4.143 0-7.5 3.357-7.5 7.5s3.357 7.5 7.5 7.5h271.181c9.649 0 17.5 7.851 17.5 17.5v57.947h-482v-57.947c0-9.649 7.851-17.5 17.5-17.5h138.5c4.143 0 7.5-3.357 7.5-7.5s-3.357-7.5-7.5-7.5h-138.5c-17.921 0-32.5 14.579-32.5 32.5v314c0 17.921 14.579 32.5 32.5 32.5h447c17.921 0 32.5-14.579 32.5-32.5v-314c0-17.921-14.579-32.5-32.5-32.5zm0 364h-447c-9.649 0-17.5-7.851-17.5-17.5v-241.053h482v241.053c0 9.649-7.851 17.5-17.5 17.5z"/><path d="m43.745 119.447c0 12.406 10.094 22.5 22.5 22.5s22.5-10.094 22.5-22.5-10.094-22.5-22.5-22.5-22.5 10.094-22.5 22.5zm30 0c0 4.136-3.364 7.5-7.5 7.5s-7.5-3.364-7.5-7.5 3.364-7.5 7.5-7.5 7.5 3.365 7.5 7.5z"/><path d="m103.745 119.447c0 12.406 10.094 22.5 22.5 22.5s22.5-10.094 22.5-22.5-10.094-22.5-22.5-22.5-22.5 10.094-22.5 22.5zm30 0c0 4.136-3.364 7.5-7.5 7.5s-7.5-3.364-7.5-7.5 3.364-7.5 7.5-7.5 7.5 3.365 7.5 7.5z"/><path d="m163.745 119.447c0 12.406 10.094 22.5 22.5 22.5s22.5-10.094 22.5-22.5-10.094-22.5-22.5-22.5-22.5 10.094-22.5 22.5zm22.5-7.5c4.136 0 7.5 3.364 7.5 7.5s-3.364 7.5-7.5 7.5-7.5-3.364-7.5-7.5 3.364-7.5 7.5-7.5z"/><path d="m450 141.947c12.406 0 22.5-10.094 22.5-22.5s-10.094-22.5-22.5-22.5h-185c-12.406 0-22.5 10.094-22.5 22.5s10.094 22.5 22.5 22.5zm-192.5-22.5c0-4.136 3.364-7.5 7.5-7.5h185c4.136 0 7.5 3.364 7.5 7.5s-3.364 7.5-7.5 7.5h-185c-4.136 0-7.5-3.364-7.5-7.5z"/><path d="m273.86 189.431h-35.86c-4.143 0-7.5 3.357-7.5 7.5s3.357 7.5 7.5 7.5h35.86c1.379 0 2.5 1.121 2.5 2.5v131c0 1.379-1.121 2.5-2.5 2.5h-223c-1.379 0-2.5-1.121-2.5-2.5v-131c0-1.379 1.121-2.5 2.5-2.5h152.14c4.143 0 7.5-3.357 7.5-7.5s-3.357-7.5-7.5-7.5h-152.14c-9.649 0-17.5 7.851-17.5 17.5v131c0 9.649 7.851 17.5 17.5 17.5h223c9.649 0 17.5-7.851 17.5-17.5v-131c0-9.65-7.85-17.5-17.5-17.5z"/><path d="m355.974 281.905c6.144.063 11.883-2.239 16.209-6.592l1.211-1.218v45.214c0 12.387 10.039 22.465 22.378 22.465s22.378-10.078 22.378-22.465v-45.214l1.211 1.218c7.646 7.963 22.772 9.182 31.669.006 8.72-8.752 8.72-22.994.005-31.742l-39.392-39.622c-4.403-4.486-10.777-6.948-16.997-6.6-5.502.264-10.874 2.667-14.711 6.565l-39.146 39.376c-8.714 8.765-9.068 22.588-.806 31.47 4.187 4.503 9.866 7.038 15.991 7.139zm-4.549-28.032 39.174-39.403c1.23-1.251 3.013-2.048 4.83-2.135 2.018-.112 4.109.702 5.543 2.162l39.431 39.661c2.904 2.916 2.904 7.659-.005 10.579-2.194 2.107-6.692 3.36-10.4 0l-14.029-14.111c-2.14-2.152-5.369-2.803-8.179-1.646-2.808 1.158-4.64 3.896-4.64 6.934v63.396c0 4.116-3.31 7.465-7.378 7.465s-7.378-3.349-7.378-7.465v-63.396c0-3.037-1.832-5.775-4.64-6.934-.926-.381-1.896-.566-2.858-.566-1.959 0-3.885.768-5.32 2.212l-14.03 14.111c-2.274 2.174-6.803 3.393-10.58-.188-2.707-2.908-2.501-7.698.459-10.676z"/><path d="m457.99 330.836c-11.386 0-20.649 9.291-20.649 20.711v6.123h-24.341c-4.143 0-7.5 3.357-7.5 7.5s3.357 7.5 7.5 7.5h31.841c4.143 0 7.5-3.357 7.5-7.5v-13.623c0-3.149 2.534-5.711 5.649-5.711s5.649 2.562 5.649 5.711v29.16c0 4.136-3.364 7.5-7.5 7.5h-120.557c-4.136 0-7.5-3.364-7.5-7.5v-29.16c0-3.149 2.534-5.711 5.648-5.711 3.115 0 5.649 2.562 5.649 5.711v13.623c0 4.143 3.357 7.5 7.5 7.5h31.121c4.143 0 7.5-3.357 7.5-7.5s-3.357-7.5-7.5-7.5h-23.62v-6.123c0-11.42-9.264-20.711-20.649-20.711s-20.648 9.291-20.648 20.711v29.16c0 12.406 10.094 22.5 22.5 22.5h120.557c12.406 0 22.5-10.094 22.5-22.5v-29.16c0-11.42-9.264-20.711-20.65-20.711z"/><path d="m152.671 327.594c3.178.556 6.438.837 9.689.837 30.879 0 56-25.121 56-56s-25.121-56-56-56-56 25.121-56 56c0 12.532 4.048 24.382 11.706 34.269 2.537 3.274 7.248 3.87 10.522 1.337 3.274-2.537 3.873-7.248 1.337-10.522-5.604-7.233-8.565-15.907-8.565-25.083 0-22.607 18.393-41 41-41s41 18.393 41 41-18.393 41-41 41c-2.39 0-4.781-.206-7.109-.612-4.081-.725-7.966 2.016-8.678 6.098-.713 4.078 2.017 7.964 6.098 8.676z"/><path d="m153.114 299.831c2.068 0 4.137-.532 5.981-1.598l26.748-15.442c3.689-2.13 5.981-6.1 5.981-10.359 0-4.261-2.292-8.23-5.981-10.36l-26.747-15.443c-3.688-2.13-8.271-2.132-11.963 0-3.69 2.13-5.982 6.1-5.982 10.36v30.886c0 4.26 2.292 8.229 5.981 10.359 1.846 1.065 3.914 1.597 5.982 1.597zm3.037-37.583 17.637 10.183-17.637 10.183z"/><path d="m155.254 370.569h-114.394c-4.143 0-7.5 3.357-7.5 7.5s3.357 7.5 7.5 7.5h114.394c4.143 0 7.5-3.357 7.5-7.5s-3.358-7.5-7.5-7.5z"/><path d="m119.51 397.569h-78.65c-4.143 0-7.5 3.357-7.5 7.5s3.357 7.5 7.5 7.5h78.649c4.143 0 7.5-3.357 7.5-7.5s-3.357-7.5-7.499-7.5z"/><path d="m283.86 370.569h-53.628c-4.143 0-7.5 3.357-7.5 7.5s3.357 7.5 7.5 7.5h53.628c4.143 0 7.5-3.357 7.5-7.5s-3.357-7.5-7.5-7.5z"/></g></g></svg>